<svg width="103" height="30" viewBox="0 0 103 30" fill="none" xmlns="http://www.w3.org/2000/svg">
<path fill-rule="evenodd" clip-rule="evenodd" d="M35.6424 27.3653C34.1844 28.5685 32.0994 29.2723 29.5685 29.3051H29.3831C26.7879 29.3051 24.6413 28.5425 23.1433 27.2276C21.6925 25.9543 20.837 24.1522 20.7747 21.9836H24.6909C25.4837 21.9836 26.2188 22.4513 26.7419 23.1146C27.3696 23.9107 28.3713 24.8664 29.5947 24.8664C30.4073 24.8664 31.1924 24.6774 31.781 24.2871C32.3759 23.8925 32.7708 23.2893 32.7708 22.4891C32.7708 21.6385 32.2355 21.1038 31.4714 20.7445C30.7131 20.388 29.6795 20.1776 28.5744 19.9874C26.896 19.6996 25.0303 19.3294 23.5834 18.4139C22.8637 17.9586 22.2521 17.3707 21.8194 16.5938C21.3869 15.8171 21.1272 14.8404 21.1272 13.5977C21.1272 11.6166 21.943 9.94684 23.374 8.76803C24.8083 7.58646 26.8712 6.8905 29.3683 6.8905C31.864 6.8905 33.9122 7.60569 35.3354 8.83381C36.7102 10.0201 37.5149 11.6954 37.5745 13.7069H33.8614C33.0429 13.7069 32.2901 13.2009 31.7231 12.5243C31.1655 11.859 30.3158 11.144 29.227 11.144C28.3179 11.144 27.5718 11.3582 27.0477 11.7534C26.5177 12.1531 26.2271 12.7297 26.2271 13.4126C26.2271 13.8201 26.3554 14.1574 26.588 14.4343C26.8166 14.7063 27.1379 14.9107 27.5123 15.0743C28.2516 15.3973 29.2601 15.5859 30.3332 15.7865L30.3539 15.7903L30.4569 15.8094C32.1495 16.1222 34.0116 16.4664 35.4651 17.3495C36.202 17.7972 36.828 18.3806 37.2709 19.165C37.7137 19.9491 37.9802 20.9461 37.9802 22.232C37.9802 24.3752 37.1318 26.136 35.6424 27.3653Z" fill="black"/>
<path fill-rule="evenodd" clip-rule="evenodd" d="M1.55338 23.0861H0.000427246V21.8865C0.000427246 22.504 0.679852 23.0125 1.55338 23.0788V23.0861Z" fill="#051321"/>
<path fill-rule="evenodd" clip-rule="evenodd" d="M41.0614 19.7783V7.50195H44.2061C45.3856 7.50195 46.3414 8.48662 46.3414 9.7013V19.1133C46.3414 20.6826 46.7448 21.9608 47.5062 22.8493C48.2706 23.741 49.3767 24.217 50.7324 24.217C52.0928 24.217 53.1907 23.7301 53.9459 22.833C54.6979 21.9396 55.0912 20.662 55.0912 19.1133V9.7013C55.0912 8.48662 56.047 7.50195 57.2265 7.50195H60.3712V19.7783C60.3712 22.6464 59.4122 25.0241 57.7378 26.6851C56.0625 28.3468 53.6555 29.3067 50.7324 29.3067C47.8129 29.3067 45.3972 28.3468 43.7131 26.6848C42.0297 25.0235 41.0614 22.6458 41.0614 19.7783Z" fill="black"/>
<path fill-rule="evenodd" clip-rule="evenodd" d="M78.271 27.3653C76.8132 28.5685 74.7283 29.2723 72.1974 29.3051H72.0118C69.4169 29.3051 67.2699 28.5425 65.7721 27.2276C64.3212 25.9543 63.4659 24.1522 63.4034 21.9836H67.3196C68.1124 21.9836 68.8477 22.4513 69.3707 23.1146C69.9984 23.9107 71.0001 24.8664 72.2234 24.8664C73.036 24.8664 73.821 24.6774 74.4096 24.2871C75.0048 23.8925 75.3996 23.2893 75.3996 22.4891C75.3996 21.6385 74.8642 21.1038 74.1002 20.7445C73.3419 20.388 72.3084 20.1776 71.2031 19.9874C69.5248 19.6996 67.6589 19.3294 66.2123 18.4139C65.4925 17.9586 64.8807 17.3707 64.4482 16.5938C64.0157 15.8171 63.756 14.8404 63.756 13.5977C63.756 11.6166 64.5716 9.94684 66.0027 8.76803C67.4372 7.58646 69.4999 6.8905 71.9971 6.8905C74.4927 6.8905 76.541 7.60569 77.9643 8.83381C79.339 10.0201 80.1435 11.6954 80.2033 13.7069H76.4902C75.6718 13.7069 74.919 13.2009 74.3517 12.5243C73.7942 11.859 72.9444 11.144 71.8558 11.144C70.9465 11.144 70.2007 11.3582 69.6766 11.7534C69.1466 12.1531 68.8558 12.7297 68.8558 13.4126C68.8558 13.8201 68.9844 14.1574 69.2169 14.4343C69.4452 14.7063 69.7667 14.9107 70.1409 15.0743C70.8805 15.3973 71.8888 15.5859 72.9619 15.7865L72.9828 15.7903L73.0857 15.8094C74.778 16.1222 76.6404 16.4664 78.094 17.3495C78.8308 17.7972 79.4567 18.3806 79.8997 19.165C80.3423 19.9491 80.609 20.9461 80.609 22.232C80.609 24.3752 79.7607 26.136 78.271 27.3653Z" fill="black"/>
<path fill-rule="evenodd" clip-rule="evenodd" d="M83.6902 19.7783V7.50195H86.8349C88.0144 7.50195 88.9702 8.48662 88.9702 9.7013V19.1133C88.9702 20.6826 89.3736 21.9608 90.1349 22.8493C90.8994 23.741 92.0055 24.217 93.3612 24.217C94.7216 24.217 95.8195 23.7301 96.5747 22.833C97.3267 21.9396 97.72 20.662 97.72 19.1133V9.7013C97.72 8.48662 98.6758 7.50195 99.8553 7.50195H103V19.7783C103 22.6464 102.041 25.0241 100.367 26.6851C98.6913 28.3468 96.2843 29.3067 93.3612 29.3067C90.4417 29.3067 88.026 28.3468 86.3419 26.6848C84.6585 25.0235 83.6902 22.6458 83.6902 19.7783Z" fill="black"/>
<path fill-rule="evenodd" clip-rule="evenodd" d="M14.7533 23.0862C16.0398 23.0862 17.0827 24.1604 17.0827 25.4855V28.6845H2.32961C1.0431 28.6845 0.000183105 27.6103 0.000183105 26.2852V23.0862H14.7533Z" fill="black"/>
<path fill-rule="evenodd" clip-rule="evenodd" d="M17.0827 3.89242V0.693359H2.32961C1.04311 0.693359 0.000183105 1.76756 0.000183105 3.09265V6.29171L0.000258637 8.691H0.00535061C0.0690777 7.44465 0.723608 6.44399 1.55321 6.30755V6.29171H14.7533C16.0398 6.29171 17.0827 5.21751 17.0827 3.89242Z" fill="url(#paint0_linear)"/>
<path fill-rule="evenodd" clip-rule="evenodd" d="M11.9753 0.693359L10.1186 6.29171H2.32969V6.30123C1.07555 6.42971 0.0776551 7.79295 0.00455216 9.49037H0.000258637V6.29171L0.000183105 3.09265C0.000183105 1.76756 1.04311 0.693359 2.32961 0.693359H11.9753Z" fill="url(#paint1_linear)"/>
<path fill-rule="evenodd" clip-rule="evenodd" d="M17.0826 15.0885V11.8894H2.32943C1.04292 11.8894 0 12.9636 0 14.2887V17.4878H0.000152544V18.6874C0.000152544 18.0699 0.679577 17.5614 1.5531 17.4951V17.4878H14.7532C16.0397 17.4878 17.0826 16.4136 17.0826 15.0885Z" fill="url(#paint2_linear)"/>
<path fill-rule="evenodd" clip-rule="evenodd" d="M8.32961 11.8894L6.48788 17.4878H1.5531V17.4951C0.679577 17.5614 0.000152544 18.0699 0.000152544 18.6874V17.4878H0V14.2887C0 12.9636 1.04292 11.8894 2.32943 11.8894H8.32961Z" fill="url(#paint3_linear)"/>
<defs>
<linearGradient id="paint0_linear" x1="0.000258637" y1="1.29253" x2="2.55982" y2="1.29253" gradientUnits="userSpaceOnUse">
<stop stop-color="#018A47"/>
<stop offset="1" stop-color="#02AE5A"/>
</linearGradient>
<linearGradient id="paint1_linear" x1="0.000258637" y1="1.35207" x2="1.79457" y2="1.35207" gradientUnits="userSpaceOnUse">
<stop stop-color="#007B3F"/>
<stop offset="1" stop-color="#019B48"/>
</linearGradient>
<linearGradient id="paint2_linear" x1="0.000152544" y1="15.2581" x2="2.85886" y2="15.2581" gradientUnits="userSpaceOnUse">
<stop stop-color="#5CD59A"/>
<stop offset="1" stop-color="#6FEAAE"/>
</linearGradient>
<linearGradient id="paint3_linear" x1="0.000152544" y1="15.2581" x2="1.3941" y2="15.2581" gradientUnits="userSpaceOnUse">
<stop stop-color="#53C38C"/>
<stop offset="1" stop-color="#51E09B"/>
</linearGradient>
</defs>
</svg>
